PathFileType	4	(X/Y/Z)	/Users/niels/Desktop/University/Third Semester/Perception and Action/Exam/Gymnastics Motion Tracking/Code for Gym Tracking/Analyzed Data/Webcam_Backflip/id20_1_baseline_Sports2D/id20_1_baseline_Sports2D_px_person00.trc
DataRate	CameraRate	NumFrames	NumMarkers	Units	OrigDataRate	OrigDataStartFrame	OrigNumFrames
29.71698113207547	29.71698113207547	11	22	m	29.71698113207547	45	106
Frame#	Time	Hip			RHip			RKnee			RAnkle			RBigToe			RSmallToe			RHeel			LHip			LKnee			LAnkle			LBigToe			LSmallToe			LHeel			Neck			Head			Nose			RShoulder			RElbow			RWrist			LShoulder			LElbow			LWrist		
		X1	Y1	Z1	X2	Y2	Z2	X3	Y3	Z3	X4	Y4	Z4	X5	Y5	Z5	X6	Y6	Z6	X7	Y7	Z7	X8	Y8	Z8	X9	Y9	Z9	X10	Y10	Z10	X11	Y11	Z11	X12	Y12	Z12	X13	Y13	Z13	X14	Y14	Z14	X15	Y15	Z15	X16	Y16	Z16	X17	Y17	Z17	X18	Y18	Z18	X19	Y19	Z19	X20	Y20	Z20	X21	Y21	Z21	X22	Y22	Z22
45	1.514285714285714	0.7233371891713865	-1.037448084069798	0.0	0.5153785650562712	-1.0328435665871611	0.0	0.485468634124023	-0.968322768477035	0.0	1.5437197011459982	-1.0645752179953356	0.0	1.157537109375	-0.19354101562500006	0.0	1.1474882812499998	-0.213638671875	0.0			0.0	0.9174186378668013	-1.0466575054435818	0.0	1.4677947298404583	-0.9941840934966503	0.0	0.6785578449131611	-1.0650600832938788	0.0			0.0	1.4646240234375	-0.6392470703125	0.0			0.0	1.083585256855304	-0.08145633182225465	0.0	1.3464122448158404	-0.03605080863335499	0.0	1.3329082829971004	0.0341540548872749	0.0	0.8063664000131456	-0.06298478056625935	0.0	0.35804764409073125	-0.23392776037392005	0.0	0.03954206878201852	-0.18284953742444487	0.0	1.212918518341027	-0.2986068418692443	0.0	1.1205663908378474	-0.7559728758075391	0.0	1.1436863902612642	-0.8852401354788314	0.0
46	1.5479365079365077	0.7232446559768507	-1.0374203915989992	0.0	0.5153155308414405	-1.0327927880235748	0.0	0.4855745946483588	-0.9683124466635091	0.0	1.5437197019332023	-1.0645752216556736	0.0	1.157537109375	-0.19354101562500006	0.0	1.1474882812499998	-0.213638671875	0.0			0.0	0.9172914603937485	-1.0466291094365532	0.0	1.4677115349632806	-0.994188725895361	0.0	0.6785579005504012	-1.0650601480981319	0.0			0.0	1.4646240234375	-0.6392470703125	0.0			0.0	1.0835440025736647	-0.08144650710430716	0.0	1.3463898146925928	-0.03606169981760803	0.0	1.332911516252099	0.034188818199067696	0.0	0.8063315736130344	-0.06294228021478063	0.0	0.358130161376651	-0.23388008643693434	0.0	0.03951083312673014	-0.18294372653505023	0.0	1.2128683576150279	-0.298598432618461	0.0	1.1205178971198515	-0.7559380325930875	0.0	1.1436288097994725	-0.8852419829769154	0.0
47	1.5815873015873014	0.7231469173903011	-1.0373048825925826	0.0	0.5152804999573896	-1.0326707967834865	0.0	0.48581673762447597	-0.9682860569919518	0.0	1.5437197199387238	-1.0645752133039477	0.0	1.157537109375	-0.19354101562500006	0.0	1.1474882812499998	-0.213638671875	0.0			0.0	0.9171075188933143	-1.0465305151262678	0.0	1.4675224350238039	-0.9941991361698806	0.0	0.6785597650573366	-1.0650605657386287	0.0			0.0	1.4646240234375	-0.6392470703125	0.0			0.0	1.0833921382992526	-0.0813780894205762	0.0	1.346374450207976	-0.03607326254821685	0.0	1.3328950931748735	0.034226000622213634	0.0	0.8062359603568817	-0.06284988882852639	0.0	0.35814549120945066	-0.2337652670404096	0.0	0.039488344784198805	-0.18296633496986467	0.0	1.2127268703646132	-0.29846839143511106	0.0	1.1204322827677748	-0.7558064368223418	0.0	1.1435597450566077	-0.8851600627515299	0.0
48	1.615238095238095	0.7230507820674321	-1.037105701226905	0.0	0.5152739479346963	-1.032474041163483	0.0	0.48622947241541536	-0.9682380571453204	0.0	1.543719767886106	-1.0645751813123128	0.0	1.157537109375	-0.19354101562500006	0.0	1.1474882812499998	-0.213638671875	0.0			0.0	0.9168724037526936	-1.046360535130981	0.0	1.4672003101158093	-0.9942167851984433	0.0	0.6785647927942531	-1.0650615651308157	0.0			0.0	1.4646240234375	-0.6392470703125	0.0			0.0	1.0831460227593883	-0.08130431987373182	0.0	1.3463661480923494	-0.03608198262559403	0.0	1.3328749872249828	0.03425414905624345	0.0	0.806084391689535	-0.06274676865292833	0.0	0.3580948029416702	-0.2336289291809501	0.0	0.03947250001208094	-0.18296904190138652	0.0	1.2125044316555782	-0.29828186807251966	0.0	1.1203103921598618	-0.755625149622153	0.0	1.1435045747291859	-0.8850656669033057	0.0
49	1.6488888888888886	0.7229580184577894	-1.0368453584378277	0.0	0.5152898377228663	-1.0322191864907668	0.0	0.48678491559519627	-0.9681691295758237	0.0	1.5437198570267534	-1.0645751129644936	0.0	1.157537109375	-0.19354101562500006	0.0	1.1474882812499998	-0.213638671875	0.0			0.0	0.9165989565382056	-1.0461374961444485	0.0	1.466766460455848	-0.9942404433269582	0.0	0.6785741970658206	-1.0650633205631843	0.0			0.0	1.4646240234375	-0.6392470703125	0.0			0.0	1.0828338481387045	-0.08124839850623698	0.0	1.3463630014198622	-0.03608717639034312	0.0	1.3328587859887968	0.03427097320382083	0.0	0.8058915206412309	-0.06265162213265148	0.0	0.3579959410006161	-0.23349592608201097	0.0	0.039460253557556155	-0.18298056170637217	0.0	1.2122222898016504	-0.29808012148763724	0.0	1.1201444436546244	-0.7554091370566834	0.0	1.143470026159316	-0.8849915910965425	0.0
50	1.6825396825396823	0.7228821536884842	-1.0365978753213319	0.0	0.5153173075923635	-1.031976346187124	0.0	0.48732255812665815	-0.9680945867794041	0.0	1.5437199876915562	-1.0645750012193111	0.0	1.157537109375	-0.19354101562500006	0.0	1.1474882812499998	-0.213638671875	0.0			0.0	0.9163476034926911	-1.0459276012354692	0.0	1.4663455393871137	-0.9942631861456863	0.0	0.6785880564165404	-1.065065760071143	0.0			0.0	1.4646240234375	-0.6392470703125	0.0			0.0	1.0825365600033978	-0.08121444877899667	0.0	1.3463628319611596	-0.03608951310030928	0.0	1.3328485680599655	0.03427858315792222	0.0	0.8057072609793796	-0.06257922939802182	0.0	0.35789079092508486	-0.2333921907019755	0.0	0.0394506816446747	-0.18300363446598128	0.0	1.2119499228685322	-0.29790977758319664	0.0	1.119940212931881	-0.7551719229604725	0.0	1.1434533121742048	-0.8849458906169158	0.0
51	1.716190476190476	0.7228636408935216	-1.0365281709455523	0.0	0.5153388265549514	-1.0319078462606235	0.0	0.4874654590933787	-0.9680551773633416	0.0	1.5437201335404942	-1.0645748573856975	0.0	1.157537109375	-0.19354101562500006	0.0	1.1474882812499998	-0.213638671875	0.0			0.0	0.9162692533217502	-1.0458784280146813	0.0	1.4662310767340683	-0.9942688326513236	0.0	0.678603649127695	-1.0650682621875807	0.0			0.0	1.4646240234375	-0.6392470703125	0.0			0.0	1.0824357757784535	-0.0811970164831572	0.0	1.346363937224598	-0.03609003991985213	0.0	1.3328435770627236	0.034280336152078775	0.0	0.8056464012558727	-0.06255592536202732	0.0	0.35785902151773674	-0.23336590589656764	0.0	0.03944722327101577	-0.18301275265847539	0.0	1.2118486716745174	-0.2978542985127415	0.0	1.1197457910565491	-0.7549624932616057	0.0	1.1434484699957927	-0.8849242343598687	0.0
52	1.7498412698412695	0.7229796718008394	-1.036921166602873	0.0	0.5153268955814932	-1.032296739393219	0.0	0.4865586642463125	-0.9681266394291477	0.0	1.5437202208407612	-1.0645747298332997	0.0	1.157537109375	-0.19354101562500006	0.0	1.1474882812499998	-0.213638671875	0.0			0.0	0.9166363194259638	-1.0462429328786491	0.0	1.4669338301336579	-0.9942293611028213	0.0	0.6786132489309171	-1.0650692805032715	0.0			0.0	1.4646240234375	-0.6392470703125	0.0			0.0	1.0828502003258664	-0.08118753822018175	0.0	1.3463652704719813	-0.03608967746670966	0.0	1.3328420904275389	0.034279198389006296	0.0	0.8059109793193764	-0.06263004493911609	0.0	0.35802960419172386	-0.23350155076076196	0.0	0.03945906509241691	-0.18295234125726037	0.0	1.2122055481945841	-0.2980566653790875	0.0	1.119683362695582	-0.7549028123740125	0.0	1.1434498347996591	-0.8849183466850365	0.0
53	1.7834920634920632	0.7233406347979089	-1.0381689542085022	0.0	0.5152426773494673	-1.033533925695583	0.0	0.48370175863020093	-0.9684199722378609	0.0	1.5437201092461472	-1.0645747250942434	0.0	1.157537109375	-0.19354101562500006	0.0	1.1474882812499998	-0.213638671875	0.0			0.0	0.91783251608038	-1.0473658171793514	0.0	1.4691569324685303	-0.9941063841959086	0.0	0.6786020563307315	-1.0650660387487245	0.0			0.0	1.4646240234375	-0.6392470703125	0.0			0.0	1.084225296609835	-0.08117817097322637	0.0	1.346366338093232	-0.03608904571788553	0.0	1.3328424515241457	0.034277174309208666	0.0	0.8067831996700049	-0.06287177076860202	0.0	0.35857504298674964	-0.23391708678346063	0.0	0.039500941257673915	-0.1827400503307144	0.0	1.2134257833275481	-0.29871655438229383	0.0	1.1199727206759535	-0.7552140040206181	0.0	1.1434533932380562	-0.8849205565680421	0.0
54	1.817142857142857	0.7240599169537675	-1.0406669104472874	0.0	0.5150415251962145	-1.03601509548824	0.0	0.47798819321296593	-0.9690590447120435	0.0	1.5437195887764206	-1.064575020964583	0.0	1.157537109375	-0.19354101562500006	0.0	1.1474882812499998	-0.213638671875	0.0			0.0	0.920254284384123	-1.0495888451263609	0.0	1.4736099475917481	-0.9938614955042696	0.0	0.6785478105935291	-1.0650545960170255	0.0			0.0	1.4646240234375	-0.6392470703125	0.0			0.0	1.0870209141833407	-0.08116415534710267	0.0	1.3463670079968553	-0.03608847326253349	0.0	1.332843477935907	0.03427533049587896	0.0	0.8085538859753638	-0.06335387232222887	0.0	0.3596660781237577	-0.23472963285772497	0.0	0.03958974564700033	-0.18228467124053943	0.0	1.2159341525424592	-0.3000370386825318	0.0	1.1209228943195508	-0.7562073776510919	0.0	1.1434568966428005	-0.884925512422596	0.0
55	1.8507936507936507	0.7251802443589506	-1.0445587665645188	0.0	0.5146917732365265	-1.0398876411256854	0.0	0.46908908215657474	-0.9701179390079223	0.0	1.5437184180151202	-1.0645758516616715	0.0	1.157537109375	-0.19354101562500006	0.0	1.1474882812499998	-0.213638671875	0.0			0.0	0.9240648669857471	-1.053022669709753	0.0	1.4805542238313314	-0.9934813449626768	0.0	0.6784247267197823	-1.0650307660107312	0.0			0.0	1.4646240234375	-0.6392470703125	0.0			0.0	1.0914282209328365	-0.08114588730875581	0.0	1.3463673329678767	-0.03608807974415173	0.0	1.3328445020432813	0.03427405859656792	0.0	0.8113430071844475	-0.0641026571567992	0.0	0.36136043389696065	-0.23597185181262106	0.0	0.03973565667780845	-0.18153162013045232	0.0	1.2199223124926741	-0.30209030018622757	0.0	1.1228538661998868	-0.7582020934550245	0.0	1.1434594317364137	-0.8849302642703653	0.0
